<svg xmlns="http://www.w3.org/2000/svg" viewBox="0 0 240 240" role="img" aria-label="Аватар пользователя">
  <defs>
    <linearGradient id="bg" x1="0" y1="0" x2="1" y2="1">
      <stop offset="0" stop-color="#e10600"/>
      <stop offset="1" stop-color="#7a0300"/>
    </linearGradient>
  </defs>
  <rect width="240" height="240" rx="120" fill="url(#bg)"/>
  <circle cx="120" cy="96" r="46" fill="#f5d6c6"/>
  <path d="M120 50a46 46 0 0 0-46 46v6c0-30 20-34 46-34s46 4 46 34v-6a46 46 0 0 0-46-46z" fill="#2b2b2b"/>
  <path d="M74 92c0-8 6-10 12-10h68c6 0 12 2 12 10l-6 14-38-6-38 6z" fill="#111111"/>
  <path d="M46 240c0-42 33-70 74-70s74 28 74 70z" fill="#111111"/>
  <path d="M96 170h48l-8 30h-32z" fill="#e10600"/>
</svg>
